<svg xmlns="http://www.w3.org/2000/svg" shape-rendering="geometricPrecision" text-rendering="geometricPrecision" image-rendering="optimizeQuality" fill-rule="evenodd" clip-rule="evenodd" viewBox="0 0 512 512"><path fill-rule="nonzero" d="M512 256c0 70.684-28.658 134.695-74.981 181.019C390.695 483.342 326.684 512 256 512c-70.691 0-134.695-28.658-181.019-74.981C28.658 390.695 0 326.691 0 256S28.658 121.305 74.981 74.981C121.305 28.658 185.309 0 256 0c70.684 0 134.695 28.658 181.019 74.981C483.342 121.305 512 185.309 512 256zm-203.996-74.996c16.956-29.411-6.608-43.961-23.788-27.542l-95.915 84.235c-15.318 15.31-15.318 21.288 0 36.606l95.915 84.235c17.26 16.303 40.686 2.086 23.788-27.55L263.456 256l44.548-74.996zm102.987 229.987C450.648 371.334 475.19 316.518 475.19 256c0-60.526-24.542-115.334-64.199-154.991C371.334 61.352 316.518 36.81 256 36.81c-60.526 0-115.334 24.542-154.991 64.199C61.352 140.666 36.81 195.474 36.81 256c0 60.526 24.542 115.334 64.199 154.991C140.666 450.648 195.474 475.19 256 475.19c60.518 0 115.334-24.542 154.991-64.199z"/></svg>