<svg height="72" viewBox="0 0 72 72" width="72" xmlns="http://www.w3.org/2000/svg" xmlns:xlink="http://www.w3.org/1999/xlink"><radialGradient id="a" cx="56.893%" cy="76.157379%" r="267%"><stop offset=".19" stop-color="#fff"/><stop offset=".8" stop-color="#fff" stop-opacity="0"/></radialGradient><mask id="b" fill="#fff"><circle cx="36" cy="36" fill="#fff" fill-rule="evenodd" r="36"/></mask><g fill="none" fill-rule="evenodd"><circle cx="36" cy="36" fill="#f8f8f8" r="36"/><g mask="url(#b)"><g transform="translate(0 12)"><path d="m47.807 85.454c.33-.017 1.753 0 2.74.007.5191384.0075157 1.0229863-.1757341 1.416-.515.027836-.0240968.0539032-.050164.078-.078.13-.153.275-.294.432-.42 7.18-5.523 5.625-12.11 5.625-16.554 0-4.89-3.706-25.847-4.3-29.505-.072-.439-.147-.757-.225-.93-.639-1.403-9.889-2.839-17.933-3.298-.8760966-.0509038-1.7528441-.0899074-2.63-.117-.27-.008-.537-.014-.8-.02-4.7-.096-11.204.391-13.788 3.652-2.582 3.261-4.524 10.434-3.232 19.824 1.259 9.145 1.862 23.858-.233 26.787 3.358 1.006 6.908 1.527 10.5 1.59 4.489.08 11.34.09 19.107-.166z" fill="#6892bc" fill-rule="evenodd"/><path d="m62.253 45.801c12.37 15.515-21.093 11.084-30.947 24.784-11.757 16.345-30.94 18.841-30.94 1.483s9.334-43.873 32.898-43.873c16.809 0 16.586 2.048 28.99 17.606z" fill="#6892bc" fill-rule="evenodd"/><path d="m21.941 35.32c-5.221 1.044-11.401 7.266-12.565 12.092-1.163 4.825-3.618 13.302-5.298 17.084-1.68 3.781-2.972 14.48 3.49 15.129 6.463.648 10.471-9.13 10.859-12.651s2.775-14.344 2.905-17.215c.13-2.87 7.459-15.81.61-14.44z" fill="#6892bc" fill-rule="evenodd"/><path d="m17.14 44.49c-.0187619-.1162867.0046452-.2354505.066-.336l-.066.335z" fill="url(#a)" fill-rule="evenodd"/><path d="m35.549 13.172c-.835-.008-1.417-.71-1.48-.79-.1755605-.2325486-.1362836-.5622092.089-.747.2252433-.1834251.5559779-.1522658.743.07.084.102.388.382.668.39.174 0 .357-.123.543-.361.115307-.1585544.3083482-.2410094.5026223-.2146884s.3584162.1571686.4273777.3406884c.0701398.1836568.035732.390868-.09.542-.496.636-1.025.771-1.38.774zm-8.697.61c-.1685158-.0018785-.3261755-.0834906-.425-.22-.25-.342-.477-.45-.478-.45-.2852324.0394603-.5512505-.1518287-.6046385-.4347852-.053388-.2829564.1246376-.5580273.4046385-.6252148.132-.027.83-.104 1.54.871.12.165.138.384.045.567-.09167.1816998-.2784921.2956536-.482.294z" fill="#e88068" fill-rule="nonzero"/><g fill-rule="evenodd"><path d="m30.368 25.194s10.584 1.918 11.298 4.439c.714 2.52.249.751.249.751l.155-1.061.088-7.852s-7.92 4.644-11.79 3.723z" fill="#010101"/><path d="m34.664 36.414c-4.305-.042-7.768-2.885-7.736-6.35l.116-12.174c.033-3.465 3.55-6.24 7.855-6.199s7.768 2.884 7.736 6.35l-.116 12.173c-.032 3.466-3.549 6.241-7.855 6.2z" fill="#9cbce2"/><path d="m42.52 30.53.009-1.134.088-7.586s-3.025 5.993-12.41 2.87c0 0 9.242 1.072 12.312 5.85" fill="#6892bc"/><path d="m41.897 11.112c1.98-.61 3.685 1.606 2.505 3.3-.031.045-.064.09-.099.135-1.387 1.8-3.358.725-3.358.725" fill="#98b5d3"/><path d="m27.109 18.219.094-9.852c.0203255-2.16234051.8988546-4.22803181 2.4423001-5.74259631s3.6253612-2.35392207 5.7876999-2.33340369h.002c4.5041297.04342157 8.1202866 3.72986903 8.077 8.234l-.094 9.852c-.0428745 4.5024706-3.727528 8.1177291-8.23 8.075h-.002c-4.5037354-.043423-8.1197306-3.729258-8.077-8.233z" fill="#9cbce2"/><path d="m38.692 17.101c-.4881098-.0083776-.9352384-.2747521-1.175-.7-.1335028-.2447464-.2276547-.5089791-.279-.783-.0166859-.0643808.0032803-.1327265.052-.178.0483929-.0456581.1183022-.060322.1809632-.0379582.0626609.0223639.107488.0779775.1160368.1439582.044.237.125.466.24.678.144.255.389.436.674.497.265.06.544 0 .763-.162.354-.264.444-.595.376-.806l-.026-.089c-.3441496-1.2102994-.5125382-2.4637844-.5-3.722l.017-1.837c-.0037789-.0671174.0301572-.13074751.088-.165.0573222-.0338764.1288063-.03271719.185.003.0562594.03570539.0881913.0995693.083.166l-.017 1.836c-.012288 1.2237885.1517288 2.4429687.487 3.62l.023.078c.098.307.025.808-.504 1.203-.227.17-.502.259-.784.255z" fill="#6892bc"/><path d="m27.343 10.68c-1.968-.65-3.715 1.534-2.567 3.251.03.046.063.091.096.137 1.354 1.83 3.344.79 3.344.79" fill="#9cbce2"/><path d="m27.305 7.153s-.073 1.303 1.297 2.454c.677.569 1.08 1.306 1.086 2.086 0 .357-.032.714-.093 1.066-.061.372-.465.65-.94.645h-.12c-.476-.005-.853-.33-.808-.705.086-.795-.058-2.097-.465-2.084-.85.02.043-3.462.043-3.462z" fill="#6892bc"/><path d="m37.138 5.708c-.403-.004-.86-.173-1.319-.664-1.148-1.227-2.209-.08-2.254-.031-.073.074-.181.064-.245-.022-.06396-.0913657-.0611246-.21369586.007-.302.013-.014 1.343-1.452 2.727.028 1.148 1.227 2.21.08 2.25.031.007-.01.436-.569 1.074-.596.419-.018.82.19 1.197.622.07.083.072.218.005.305-.066.087-.176.093-.249.014-.305-.349-.625-.52-.94-.504-.492.022-.833.465-.837.469-.015.018-.611.66-1.416.65z" fill="#6892bc" opacity=".46"/><path d="m37.203 4.95c-.74-.014-1.356-.82-1.364-.833-.076-.108-.09-.307-.034-.45.056-.142.164-.177.243-.08.048.065 1.181 1.538 2.083.062.047-.083.115-.113.177-.076.063.036.11.132.122.25.013999.10862295-.0077655.21884991-.062.314-.317.535-.734.826-1.165.813z" fill="#6892bc" opacity=".46"/></g><path d="m33.245 10.374c-.2087306-.0038782-.3961392-.1288172-.48-.32-.0854453-.19228125-.0523433-.41659554.085-.576.07-.078 1.745-1.965 4.417-1.112.2730484.09863463.4195677.39520383.332.672-.0852491.27705319-.3759599.43550165-.655.357-1.1583252-.38911097-2.4371585-.08009197-3.29.795-.1024719.1187225-.2521842.1860747-.409.184zm10.315.241c-.1455117-.0037788-.2830086-.0674616-.38-.176-.8004533-.92708921-2.0643205-1.30850904-3.244-.979-.2764194.07928469-.5659827-.07455962-.655-.348-.0916767-.27382318.0478571-.57137773.317-.676.101-.033 2.488-.814 4.373 1.277.1992966.22061073.1836809.5605877-.035.762-.1016649.0942636-.2364344.1445775-.375.14zm-16.703 2.715c-.056657-.0007842-.1096376-.0282007-.143-.074-.459-.63-.827-.59-.831-.591-.0467715.0096238-.0954459-.0001701-.1348554-.0271345s-.0661711-.0687846-.0741446-.1158655c-.0183441-.0971129.0450421-.1908532.142-.21.06-.012.59-.087 1.186.732.0572961.0798324.0404294.1907979-.038.25-.0309814.0229765-.0684307.0355763-.107.036zm11.357 6.944c-1.1323964-.0201-2.2327626-.3792256-3.159-1.031-.533753-.425768-.6341397-1.1979052-.227-1.746.4036944-.5472145 1.1727874-.667218 1.724-.269.176.127 1.687 1.148 3.46-.066.5699046-.3780099 1.3382133-.2237221 1.718.345.383.57.242 1.344-.317 1.739-1.146.784-2.246 1.037-3.2 1.028z" fill="#6892bc" fill-rule="nonzero"/><ellipse cx="33.968" cy="15.04" fill="#b2d2ee" fill-rule="evenodd" rx="1.357" ry="1.37"/><ellipse cx="42.016" cy="15.21" fill="#b2d2ee" fill-rule="evenodd" rx="1.357" ry="1.37"/><path d="m50.866 32.287 6.558 6.46c1.3669154 1.3420557 2.5929633 2.8204168 3.659 4.412 5.106 7.648 7.072 16.998 6.825 26.355-.007.262-.015.525-.026.787-.443 10.517-12.875 11.768-12.875 11.768s-13.315-11.919-13.765-21.233c0 0 5.061-1.8 6.401-6.159 1.34-4.358 5.806-2.103 5.806-2.103l-4.836-21.917z" fill="#6892bc" fill-rule="evenodd"/><circle cx="35.437" cy="12.078" fill="#6892bc" fill-rule="evenodd" r="1"/><circle cx="40.893" cy="12.118" fill="#6892bc" fill-rule="evenodd" r="1"/></g></g></g></svg>
